<svg xmlns="http://www.w3.org/2000/svg" xmlns:xlink="http://www.w3.org/1999/xlink" width="1092" height="762" viewBox="0 0 1092 762">
  <defs>
    <style>
      .cls-1 {
        fill: url(#linear-gradient);
      }

      .cls-2 {
        fill: #8b5df7;
        opacity: 0.59;
      }

      .cls-3, .cls-5 {
        fill: #aa3bff;
      }

      .cls-4 {
        fill: #fff;
      }

      .cls-6 {
        fill: url(#linear-gradient-3);
      }

      .cls-7, .cls-8 {
        stroke: none;
      }

      .cls-8 {
        fill: #707070;
      }
    </style>
    <linearGradient id="linear-gradient" x1="0.5" x2="0.5" y2="1" gradientUnits="objectBoundingBox">
      <stop offset="0" stop-color="#aa3bff"/>
      <stop offset="1" stop-color="#1919a7"/>
    </linearGradient>
    <linearGradient id="linear-gradient-3" x1="0.5" x2="0.5" y2="1" gradientUnits="objectBoundingBox">
      <stop offset="0" stop-color="#fff"/>
      <stop offset="0.322"/>
      <stop offset="1" stop-color="#aa3bff"/>
    </linearGradient>
  </defs>
  <g id="ForwarderBot" transform="translate(-587.68 -147.093)">
    <g id="msg" transform="translate(737.68 297.093)">
      <path id="sombra_1" data-name="sombra 1" class="cls-1" d="M9.644,320.194l20.334-71.216A156.777,156.777,0,0,1,156.764,0H355.236a156.763,156.763,0,1,1,0,313.527H156.764a156.443,156.443,0,0,1-55.379-10.062c-.1.038-.208.073-.315.107L19.609,329.611a8.049,8.049,0,0,1-2.457.389A7.747,7.747,0,0,1,9.644,320.194Z"/>
      <path id="Unión_1" data-name="Unión 1" class="cls-1" d="M9.644,320.194l20.334-71.216A156.777,156.777,0,0,1,156.764,0H355.236a156.763,156.763,0,1,1,0,313.527H156.764a156.443,156.443,0,0,1-55.379-10.062c-.1.038-.208.073-.315.107L19.609,329.611a8.049,8.049,0,0,1-2.457.389A7.747,7.747,0,0,1,9.644,320.194Z" transform="translate(0 0)"/>
      <path id="sombra_2" data-name="sombra 2" class="cls-2" d="M9.644,320.194l20.334-71.216A156.777,156.777,0,0,1,156.764,0H355.236a156.763,156.763,0,1,1,0,313.527H156.764a156.443,156.443,0,0,1-55.379-10.062c-.1.038-.208.073-.315.107L19.609,329.611a8.049,8.049,0,0,1-2.457.389A7.747,7.747,0,0,1,9.644,320.194Z" transform="translate(280 132)"/>
      <g id="Unión_2" data-name="Unión 2" class="cls-3" transform="translate(280 132)">
        <path class="cls-7" d="M 17.15237426757813 329.4996643066406 C 14.86499881744385 329.4996643066406 12.66818618774414 328.3979187011719 11.2758731842041 326.5523376464844 C 9.925998687744141 324.7630310058594 9.506248474121094 322.4955444335938 10.12424850463867 320.3312072753906 L 30.4583740234375 249.1150970458984 L 30.52531051635742 248.8805389404297 L 30.38168525695801 248.6834106445313 C 20.85612297058105 235.6101531982422 13.45793628692627 221.2276611328125 8.392623901367188 205.9353485107422 C 3.155436038970947 190.1242218017578 0.499998539686203 173.5805358886719 0.499998539686203 156.7637786865234 C 0.499998539686203 146.1611633300781 1.568123579025269 135.5653533935547 3.674748420715332 125.2706604003906 C 5.727748394012451 115.2378463745117 8.791123390197754 105.3692855834961 12.77981090545654 95.93903350830078 C 16.69606018066406 86.67990875244141 21.54343605041504 77.74941253662109 27.18712425231934 69.39559936523438 C 32.77730941772461 61.12103652954102 39.19725036621094 53.34003448486328 46.26862335205078 46.26866149902344 C 53.34000015258789 39.19728469848633 61.12105941772461 32.77734756469727 69.39562225341797 27.18716049194336 C 77.74937438964844 21.54340934753418 86.67993927001953 16.69609832763672 95.93906402587891 12.77978515625 C 105.3693084716797 8.791159629821777 115.2378768920898 5.727785110473633 125.2706832885742 3.674784898757935 C 135.5653686523438 1.568159937858582 146.1611785888672 0.5000349283218384 156.7638092041016 0.5000349283218384 L 355.2362976074219 0.5000349283218384 C 365.8389282226563 0.5000349283218384 376.4347534179688 1.568159937858582 386.7294311523438 3.674784898757935 C 396.7622375488281 5.727785110473633 406.6307983398438 8.791159629821777 416.0610656738281 12.77978515625 C 425.3201904296875 16.69609832763672 434.2507629394531 21.54340934753418 442.6044921875 27.18716049194336 C 450.8790588378906 32.77734756469727 458.6601257324219 39.19728469848633 465.7315063476563 46.26866149902344 C 472.8028869628906 53.34003448486328 479.2228088378906 61.12103652954102 484.81298828125 69.39559936523438 C 490.4566955566406 77.74941253662109 495.3040466308594 86.67990875244141 499.2203063964844 95.93903350830078 C 503.208984375 105.3692855834961 506.2723693847656 115.2378463745117 508.3253784179688 125.2706604003906 C 510.4320068359375 135.5653533935547 511.5001220703125 146.1611633300781 511.5001220703125 156.7637786865234 C 511.5001220703125 167.3662872314453 510.4320068359375 177.9620361328125 508.3253784179688 188.256591796875 C 506.2723693847656 198.2893524169922 503.208984375 208.1578521728516 499.2203063964844 217.5880279541016 C 495.3040466308594 226.8470916748047 490.4566955566406 235.7776031494141 484.81298828125 244.13134765625 C 479.2228088378906 252.4058532714844 472.8028869628906 260.1868591308594 465.7315063476563 267.2582092285156 C 458.6601257324219 274.3295288085938 450.8790588378906 280.7494812011719 442.6044921875 286.3396606445313 C 434.2507629394531 291.9833374023438 425.3201904296875 296.8306579589844 416.0610656738281 300.7469787597656 C 406.6307983398438 304.735595703125 396.7622375488281 307.7989807128906 386.7294311523438 309.8519592285156 C 376.4347534179688 311.9585876464844 365.8389282226563 313.0267333984375 355.2362976074219 313.0267333984375 L 156.7638092041016 313.0267333984375 C 137.757568359375 313.0267333984375 119.184684753418 309.652099609375 101.5611267089844 302.9966125488281 L 101.387809753418 302.93115234375 L 101.2136840820313 302.9944152832031 C 101.114875793457 303.0303344726563 101.0153121948242 303.0643615722656 100.9178771972656 303.095458984375 L 19.45693588256836 329.1343383789063 C 18.69899940490723 329.3767700195313 17.92362403869629 329.4996643066406 17.15237426757813 329.4996643066406 Z"/>
        <path class="cls-8" d="M 17.15239524841309 328.9996337890625 C 17.87179374694824 328.9996337890625 18.59592819213867 328.8847045898438 19.30472755432129 328.6580505371094 L 100.7657928466797 302.6191711425781 C 100.8567962646484 302.5901184082031 100.9501266479492 302.5582580566406 101.0431976318359 302.5244445800781 L 101.3913269042969 302.3979797363281 L 101.73779296875 302.5288391113281 C 119.3045272827148 309.1629943847656 137.8179321289063 312.5267028808594 156.7637939453125 312.5267028808594 L 355.236328125 312.5267028808594 C 365.8053283691406 312.5267028808594 376.3674621582031 311.4619750976563 386.6291809082031 309.3621215820313 C 396.6296691894531 307.3157043457031 406.4664611816406 304.2622375488281 415.8663330078125 300.2864379882813 C 425.0957336425781 296.3827209472656 433.9975891113281 291.5509948730469 442.3246459960938 285.9253234863281 C 450.5727844238281 280.3529663085938 458.3290710449219 273.9535217285156 465.3779296875 266.9046325683594 C 472.4268493652344 259.8557739257813 478.8263244628906 252.0995788574219 484.3987426757813 243.8514404296875 C 490.0243225097656 235.5244445800781 494.8561401367188 226.6226501464844 498.7598571777344 217.3932495117188 C 502.7356567382813 207.9934539794922 505.7891235351563 198.1567840576172 507.8355407714844 188.1563873291016 C 509.9353942871094 177.8947143554688 511.0001220703125 167.3327178955078 511.0001220703125 156.7637786865234 C 511.0001220703125 146.1947784423828 509.9353942871094 135.6326446533203 507.8355407714844 125.3709106445313 C 505.7891235351563 115.3704452514648 502.7356567382813 105.5336456298828 498.7598571777344 96.13378143310547 C 494.8561401367188 86.90438079833984 490.0243225097656 78.00251770019531 484.3987426757813 69.67551422119141 C 478.8263244628906 61.42731475830078 472.4268493652344 53.67104721069336 465.3779296875 46.6221809387207 C 458.3290710449219 39.57324600219727 450.5727844238281 33.17378234863281 442.3245849609375 27.60138130187988 C 433.9975891113281 21.97578048706055 425.0957336425781 17.14398002624512 415.8663330078125 13.24024772644043 C 406.4664611816406 9.264447212219238 396.6296691894531 6.210980892181396 386.6291809082031 4.164580821990967 C 376.3674621582031 2.064714193344116 365.8053283691406 0.9999807476997375 355.236328125 0.9999807476997375 L 156.7637939453125 0.9999807476997375 C 146.1947937011719 0.9999807476997375 135.6326599121094 2.064714193344116 125.3709259033203 4.164580821990967 C 115.3704605102539 6.210980892181396 105.5336608886719 9.264447212219238 96.13379669189453 13.24024772644043 C 86.90439605712891 17.14398002624512 78.00252532958984 21.97578048706055 69.67552947998047 27.60138130187988 C 61.42732620239258 33.17378234863281 53.67106246948242 39.57324600219727 46.62219619750977 46.6221809387207 C 39.57326126098633 53.67104721069336 33.17379379272461 61.42731475830078 27.60139465332031 69.67551422119141 C 21.97579383850098 78.00251770019531 17.14399528503418 86.90438079833984 13.24026107788086 96.13378143310547 C 9.264460563659668 105.5336456298828 6.210994243621826 115.3704452514648 4.164594173431396 125.3709106445313 C 2.064727783203125 135.6326446533203 0.9999943971633911 146.1947784423828 0.9999943971633911 156.7637786865234 C 0.9999943971633911 173.5269775390625 3.64692759513855 190.0177764892578 8.867260932922363 205.7781066894531 C 13.91626071929932 221.021240234375 21.29072761535645 235.3575744628906 30.78572845458984 248.3889770507813 L 31.07306098937988 248.7832489013672 L 30.93912696838379 249.2523803710938 L 10.60506057739258 320.468505859375 C 10.03052806854248 322.4805908203125 10.42052745819092 324.5883178710938 11.67506122589111 326.2512512207031 C 12.9733943939209 327.9722595214844 15.02099418640137 328.9996337890625 17.15239524841309 328.9996337890625 M 17.15239524841309 329.9996337890625 C 12.20886135101318 329.9997253417969 8.186727523803711 325.2954406738281 9.643527984619141 320.1939086914063 L 29.9775276184082 248.9778442382813 C 11.12212753295898 223.0999145507813 -5.631510248349514e-06 191.2330474853516 -5.631510248349514e-06 156.7637786865234 C -5.631510248349514e-06 70.18557739257813 70.18559265136719 -1.925455762830097e-05 156.7637939453125 -1.925455762830097e-05 L 355.236328125 -1.925455762830097e-05 C 441.8145141601563 -1.925455762830097e-05 512.0001220703125 70.18557739257813 512.0001220703125 156.7637786865234 C 512.0001220703125 243.3411102294922 441.8145141601563 313.5267028808594 355.236328125 313.5267028808594 L 156.7637939453125 313.5267028808594 C 137.2699890136719 313.5267028808594 118.6021957397461 309.9666442871094 101.3845291137695 303.4643859863281 C 101.2809906005859 303.5019836425781 101.1764602661133 303.5377807617188 101.0699920654297 303.57177734375 L 19.60919380187988 329.610595703125 C 18.77906036376953 329.8760375976563 17.95352745056152 329.9996337890625 17.15239524841309 329.9996337890625 Z"/>
      </g>
    </g>
    <g id="Grupo_7" data-name="Grupo 7" transform="translate(772.717 315.894)">
      <path id="sombra" class="cls-4" d="M76.8,94.6V4.16A10,10,0,0,1,93.112-3.6l55.608,45.221a10,10,0,0,1,0,15.517L93.112,102.36a9.842,9.842,0,0,1-6.259,2.26A10,10,0,0,1,76.8,94.6ZM0,94.6V4.16A10,10,0,0,1,16.309-3.6L71.917,41.621a10,10,0,0,1,0,15.517L16.309,102.36a9.842,9.842,0,0,1-6.259,2.26A10,10,0,0,1,0,94.6Z" transform="translate(138 80)"/>
      <path id="Unión_6" data-name="Unión 6" class="cls-4" d="M75.561,94.332V4.377A10,10,0,0,1,91.931-3.333l54.44,44.978a10,10,0,0,1,0,15.419l-54.44,44.977a9.836,9.836,0,0,1-6.318,2.31A10,10,0,0,1,75.561,94.332ZM0,94.332V4.377A10,10,0,0,1,16.369-3.333l54.44,44.978a10,10,0,0,1,0,15.419l-54.44,44.977a9.836,9.836,0,0,1-6.318,2.31A10,10,0,0,1,0,94.332Z" transform="translate(138 80)"/>
    </g>
    <g id="Grupo_8" data-name="Grupo 8" transform="translate(843.308 354.545)">
      <path id="sombra-2" data-name="sombra" class="cls-5" d="M75.561,94.332V4.377A10,10,0,0,1,91.931-3.333l54.44,44.978a10,10,0,0,1,0,15.419l-54.44,44.977a9.836,9.836,0,0,1-6.318,2.31A10,10,0,0,1,75.561,94.332ZM0,94.332V4.377A10,10,0,0,1,16.369-3.333l54.44,44.978a10,10,0,0,1,0,15.419l-54.44,44.977a9.836,9.836,0,0,1-6.318,2.31A10,10,0,0,1,0,94.332Z" transform="translate(361.554 184.026)"/>
      <path id="Unión_8" data-name="Unión 8" class="cls-6" d="M75.561,94.332V4.377A10,10,0,0,1,91.931-3.333l54.44,44.978a10,10,0,0,1,0,15.419l-54.44,44.977a9.836,9.836,0,0,1-6.318,2.31A10,10,0,0,1,75.561,94.332ZM0,94.332V4.377A10,10,0,0,1,16.369-3.333l54.44,44.978a10,10,0,0,1,0,15.419l-54.44,44.977a9.836,9.836,0,0,1-6.318,2.31A10,10,0,0,1,0,94.332Z" transform="translate(361.554 184.026)"/>
    </g>
  </g>
</svg>
